<svg width="48" height="48" viewBox="0 0 48 48" fill="none" xmlns="http://www.w3.org/2000/svg">
<g clip-path="url(#clip0_102_1645)">
<path d="M5 16V9H43V39H28" stroke="white" stroke-width="2"/>
<path d="M22 40C22 37.6362 21.5344 35.2956 20.6298 33.1117C19.7252 30.9278 18.3994 28.9435 16.7279 27.2721C15.0565 25.6006 13.0722 24.2748 10.8883 23.3702C8.70444 22.4656 6.36379 22 4 22" stroke="white" stroke-width="4"/>
<path d="M15 40C15 38.5555 14.7155 37.1251 14.1627 35.7905C13.6099 34.4559 12.7996 33.2433 11.7782 32.2218C10.7567 31.2004 9.5441 30.3901 8.20952 29.8373C6.87494 29.2845 5.44454 29 4 29" stroke="white" stroke-width="4"/>
<path d="M10 40C10 39.2121 9.84481 38.4319 9.54328 37.7039C9.24175 36.9759 8.79979 36.3145 8.24264 35.7574C7.68549 35.2002 7.02405 34.7583 6.2961 34.4567C5.56815 34.1552 4.78793 34 4 34L4 40H10Z" fill="white"/>
</g>
<defs>
<clipPath id="clip0_102_1645">
<rect width="48" height="48" fill="white"/>
</clipPath>
</defs>
</svg>
