<svg width="60" height="60" viewBox="0 0 60 60" fill="none" xmlns="http://www.w3.org/2000/svg">
<path d="M22 48V45H16V48H19H22ZM19 55H16C16 55.6491 16.2105 56.2807 16.6 56.8L19 55ZM20.5 57L18.1 58.8C19.0328 60.0437 20.7612 60.3688 22.0821 59.5489L20.5 57ZM36.5821 50.5489C37.9898 49.6752 38.4227 47.8256 37.5489 46.4179C36.6752 45.0102 34.8256 44.5773 33.4179 45.4511L35 48L36.5821 50.5489ZM19 48H16V55H19H22V48H19ZM19 55L16.6 56.8L18.1 58.8L20.5 57L22.9 55.2L21.4 53.2L19 55ZM20.5 57L22.0821 59.5489L36.5821 50.5489L35 48L33.4179 45.4511L18.9179 54.4511L20.5 57Z" fill="white"/>
<path d="M16.5 19H44" stroke="white" stroke-width="6" stroke-linecap="round" stroke-linejoin="round"/>
<path d="M16 30.5L33 30.5" stroke="white" stroke-width="6" stroke-linecap="round" stroke-linejoin="round"/>
<path d="M10 5C7.23858 5 5 7.23858 5 10V40C5 42.7614 7.23858 45 10 45H16V51H10C4.47715 51 8.85881e-08 46.5228 0 41V10C0 4.47715 4.47715 1.61064e-07 10 0H50C55.5228 6.44258e-07 60 4.47715 60 10V41C60 46.5228 55.5228 51 50 51H34V45H50C52.7614 45 55 42.7614 55 40V10C55 7.23858 52.7614 5 50 5H10Z" fill="white"/>
</svg>
