<svg width="48" height="48" viewBox="0 0 48 48" fill="none" xmlns="http://www.w3.org/2000/svg">
<rect x="34" y="6" width="9" height="22" stroke="white" stroke-width="4" stroke-linejoin="round"/>
<path fill-rule="evenodd" clip-rule="evenodd" d="M8.99902 28.0474L8.99889 30.0474L8.99902 30.0474L8.99902 28.0474ZM5.13965 22.9966L3.20985 22.4714L3.20983 22.4714L5.13965 22.9966ZM8.56153 10.4243L6.63173 9.89908L6.63173 9.89909L8.56153 10.4243ZM14.3506 6.00051L14.3506 4.00051L14.3506 4.00051L14.3506 6.00051ZM34 6.00051L36 6.00051C36 4.89594 35.1046 4.00051 34 4.00051L34 6.00051ZM34 28.0474L34 30.0474C35.1046 30.0474 36 29.152 36 28.0474L34 28.0474ZM33.7656 28.0474L33.7656 26.0474C33.2352 26.0474 32.7265 26.2581 32.3515 26.6331L33.7656 28.0474ZM19.5586 42.2534L18.1444 40.8392L18.1444 40.8392L19.5586 42.2534ZM14.6279 39.0796L12.7553 38.3773L12.7552 38.3776L14.6279 39.0796ZM18.7656 28.0474L20.6383 28.7497C20.8686 28.1355 20.7831 27.4474 20.4095 26.9082C20.0359 26.3691 19.4216 26.0474 18.7656 26.0474L18.7656 28.0474ZM8.99902 28.0474L8.99916 26.0474C7.68116 26.0473 6.72325 24.794 7.06947 23.5218L5.13965 22.9966L3.20983 22.4714C2.17141 26.2872 5.044 30.0471 8.99889 30.0474L8.99902 28.0474ZM5.13965 22.9966L7.06945 23.5219L10.4913 10.9496L8.56153 10.4243L6.63173 9.89909L3.20985 22.4714L5.13965 22.9966ZM8.56153 10.4243L10.4913 10.9496C10.9652 9.2085 12.546 8.00052 14.3506 8.00051L14.3506 6.00051L14.3506 4.00051C10.7416 4.00053 7.57961 6.4166 6.63173 9.89908L8.56153 10.4243ZM14.3506 6.00051L14.3506 8.00051L34 8.00051L34 6.00051L34 4.00051L14.3506 4.00051L14.3506 6.00051ZM34 6.00051L32 6.00051L32 28.0474L34 28.0474L36 28.0474L36 6.00051L34 6.00051ZM34 28.0474L34 26.0474L33.7656 26.0474L33.7656 28.0474L33.7656 30.0474L34 30.0474L34 28.0474ZM33.7656 28.0474L32.3515 26.6331L18.1444 40.8392L19.5586 42.2534L20.9728 43.6677L35.1798 29.4616L33.7656 28.0474ZM19.5586 42.2534L18.1444 40.8392C17.3832 41.6004 16.1236 40.7875 16.5007 39.7816L14.6279 39.0796L12.7552 38.3776C10.8676 43.4131 17.1715 47.469 20.9728 43.6677L19.5586 42.2534ZM14.6279 39.0796L16.5006 39.782L20.6383 28.7497L18.7656 28.0474L16.893 27.345L12.7553 38.3773L14.6279 39.0796ZM18.7656 28.0474L18.7656 26.0474L8.99902 26.0474L8.99902 28.0474L8.99902 30.0474L18.7656 30.0474L18.7656 28.0474Z" fill="white"/>
</svg>
