<svg width="66" height="64" viewBox="0 0 66 64" fill="none" xmlns="http://www.w3.org/2000/svg">
<path d="M33 15V29" stroke="white" stroke-width="6" stroke-linecap="round" stroke-linejoin="round"/>
<path d="M53 0C60.1797 0 66 5.8203 66 13V42C66 49.1797 60.1797 55 53 55H38V48H54C57.3137 48 60 45.3137 60 42V13C60 9.68629 57.3137 7 54 7H12C8.68629 7 6 9.68629 6 13V42C6 45.3137 8.68629 48 12 48H18V55H13C5.8203 55 0 49.1797 0 42V13C3.86566e-07 5.8203 5.8203 2.09384e-07 13 0H53Z" fill="white"/>
<path d="M21 59.5H18C18 59.9657 18.1084 60.4251 18.3167 60.8416L21 59.5ZM23 61L22.0513 63.8461C22.9146 64.1338 23.8618 64.0142 24.6264 63.5209L23 61ZM40.1264 53.5209C41.5186 52.6227 41.9191 50.7659 41.0209 49.3736C40.1227 47.9814 38.2659 47.5809 36.8736 48.4791L38.5 51L40.1264 53.5209ZM21.5 60.5L18.8167 61.8416C19.1725 62.5533 19.7965 63.0944 20.5513 63.3461L21.5 60.5ZM21 48H18V59.5H21H24V48H21ZM23 61L24.6264 63.5209L40.1264 53.5209L38.5 51L36.8736 48.4791L21.3736 58.4791L23 61ZM21 59.5L18.3167 60.8416L18.8167 61.8416L21.5 60.5L24.1833 59.1584L23.6833 58.1584L21 59.5ZM21.5 60.5L20.5513 63.3461L22.0513 63.8461L23 61L23.9487 58.1539L22.4487 57.6539L21.5 60.5Z" fill="white"/>
<circle cx="33" cy="39" r="4" fill="white"/>
</svg>
