<svg width="48" height="48" viewBox="0 0 48 48" fill="none" xmlns="http://www.w3.org/2000/svg">
<mask id="path-1-inside-1_102_1688" fill="white">
<path d="M40 20V42H28V30H20V42H8V20L24 6L40 20Z"/>
</mask>
<path d="M40 20H43C43 19.1349 42.6266 18.3119 41.9755 17.7423L40 20ZM40 42V45C41.6569 45 43 43.6569 43 42H40ZM28 42H25C25 43.6569 26.3431 45 28 45V42ZM28 30H31C31 28.3431 29.6569 27 28 27V30ZM20 30V27C18.3431 27 17 28.3431 17 30H20ZM20 42V45C21.6569 45 23 43.6569 23 42H20ZM8 42H5C5 43.6569 6.34315 45 8 45V42ZM8 20L6.02449 17.7423C5.37344 18.3119 5 19.1349 5 20H8ZM24 6L25.9755 3.74227C24.8444 2.75258 23.1556 2.75258 22.0245 3.74227L24 6ZM40 20H37V42H40H43V20H40ZM40 42V39H28V42V45H40V42ZM28 42H31V30H28H25V42H28ZM28 30V27H20V30V33H28V30ZM20 30H17V42H20H23V30H20ZM20 42V39H8V42V45H20V42ZM8 42H11V20H8H5V42H8ZM8 20L9.97551 22.2577L25.9755 8.25773L24 6L22.0245 3.74227L6.02449 17.7423L8 20ZM24 6L22.0245 8.25773L38.0245 22.2577L40 20L41.9755 17.7423L25.9755 3.74227L24 6Z" fill="white" mask="url(#path-1-inside-1_102_1688)"/>
</svg>
