<svg width="48" height="48" viewBox="0 0 48 48" fill="none" xmlns="http://www.w3.org/2000/svg">
<rect x="5" y="20" width="9" height="22" stroke="white" stroke-width="4" stroke-linejoin="round"/>
<path fill-rule="evenodd" clip-rule="evenodd" d="M42.6104 25.2116L44.5389 25.7413L44.5389 25.7413L42.6104 25.2116ZM39.2109 37.5886L37.2824 37.0589L37.2823 37.0589L39.2109 37.5886ZM33.4258 41.9997V43.9997H33.4258L33.4258 41.9997ZM14 41.9997H12C12 43.1043 12.8954 43.9997 14 43.9997V41.9997ZM14 20.1521L12.5858 18.7378C12.2107 19.1129 12 19.6216 12 20.1521H14ZM28.207 5.946L29.6212 7.36026L29.6212 7.36021L28.207 5.946ZM33.1367 9.11982L35.0094 9.82202L35.0094 9.82193L33.1367 9.11982ZM29 20.1521L27.1273 19.4499C26.897 20.064 26.9825 20.7521 27.3562 21.2913C27.7298 21.8304 28.3441 22.1521 29 22.1521V20.1521ZM38.7529 20.1521V22.1521C40.0732 22.1521 41.0314 23.4089 40.6818 24.682L42.6104 25.2116L44.5389 25.7413C45.5878 21.922 42.7136 18.1521 38.7529 18.1521V20.1521ZM42.6104 25.2116L40.6818 24.6819L37.2824 37.0589L39.2109 37.5886L41.1395 38.1183L44.5389 25.7413L42.6104 25.2116ZM39.2109 37.5886L37.2823 37.0589C36.8053 38.796 35.2266 39.9997 33.4257 39.9997L33.4258 41.9997L33.4258 43.9997C37.0283 43.9996 40.1856 41.5917 41.1395 38.1182L39.2109 37.5886ZM33.4258 41.9997V39.9997H14V41.9997V43.9997H33.4258V41.9997ZM14 41.9997H16V20.1521H14H12V41.9997H14ZM14 20.1521L15.4142 21.5663L29.6212 7.36026L28.207 5.946L26.7929 4.53173L12.5858 18.7378L14 20.1521ZM28.207 5.946L29.6212 7.36021C30.3819 6.59957 31.6414 7.41109 31.264 8.41772L33.1367 9.11982L35.0094 9.82193C36.8971 4.78698 30.5948 0.729828 26.7928 4.53178L28.207 5.946ZM33.1367 9.11982L31.264 8.41763L27.1273 19.4499L29 20.1521L30.8727 20.8542L35.0094 9.82202L33.1367 9.11982ZM29 20.1521V22.1521H38.7529V20.1521V18.1521H29V20.1521Z" fill="white"/>
</svg>
