<svg width="48" height="48" viewBox="0 0 48 48" fill="none" xmlns="http://www.w3.org/2000/svg">
<path d="M35 31H33V31.8284L33.5858 32.4142L35 31ZM39 35H41V34.1716L40.4142 33.5858L39 35ZM39 37V39H41V37H39ZM9 37H7V39H9V37ZM9 35L7.58579 33.5858L7 34.1716V35H9ZM13 31L14.4142 32.4142L15 31.8284V31H13ZM24 10V12C28.9706 12 33 16.0294 33 21H35H37C37 13.8203 31.1797 8 24 8V10ZM35 21H33V31H35H37V21H35ZM35 31L33.5858 32.4142L37.5858 36.4142L39 35L40.4142 33.5858L36.4142 29.5858L35 31ZM39 35H37V37H39H41V35H39ZM39 37V35H9V37V39H39V37ZM9 37H11V35H9H7V37H9ZM9 35L10.4142 36.4142L14.4142 32.4142L13 31L11.5858 29.5858L7.58579 33.5858L9 35ZM13 31H15V21H13H11V31H13ZM13 21H15C15 16.0294 19.0294 12 24 12V10V8C16.8203 8 11 13.8203 11 21H13Z" fill="white"/>
<path d="M20 8C20 5.79086 21.7909 4 24 4C26.2091 4 28 5.79086 28 8V10H20V8Z" fill="white"/>
<path d="M28 40C28 40.5253 27.8965 41.0454 27.6955 41.5307C27.4945 42.016 27.1999 42.457 26.8284 42.8284C26.457 43.1999 26.016 43.4945 25.5307 43.6955C25.0454 43.8965 24.5253 44 24 44C23.4747 44 22.9546 43.8965 22.4693 43.6955C21.984 43.4945 21.543 43.1999 21.1716 42.8284C20.8001 42.457 20.5055 42.016 20.3045 41.5307C20.1035 41.0454 20 40.5253 20 40L24 40H28Z" fill="white"/>
</svg>
