<svg width="54" height="67" viewBox="0 0 54 67" fill="none" xmlns="http://www.w3.org/2000/svg">
<path d="M54 10.5V44.5C54 44.5 52 51.5 48.5 54.5C45 57.5 41.4812 59.3143 37.5 61.5C33.5188 63.6857 27 66.5 27 66.5C27 66.5 20.4812 63.6857 16.5 61.5C12.5188 59.3143 9.5 58 5.5 54.5C1.5 51 0 44.5 0 44.5V10.5L27 0L54 10.5ZM6 14.5264V42.1357C6.01148 42.1874 7.18168 47.4278 10.2773 50.2559C13.3883 53.0978 15.7367 54.1648 18.833 55.9395C21.929 57.714 26.9985 59.9993 27 60C27 60 32.0705 57.7143 35.167 55.9395C38.2633 54.1647 41.0006 52.6918 43.7227 50.2559C46.432 47.8312 47.9855 42.1887 48 42.1357V14.5264L27 6L6 14.5264Z" fill="white"/>
</svg>
