<svg width="62" height="62" viewBox="0 0 62 62" fill="none" xmlns="http://www.w3.org/2000/svg">
<path d="M60.3889 39.02C60.8357 37.4245 59.9045 35.7689 58.309 35.3221C56.7136 34.8753 55.058 35.8064 54.6111 37.4019L57.5 38.2109L60.3889 39.02ZM57.5 38.2109L54.6111 37.4019C53.3663 41.8467 50.355 46.156 46.7616 49.4099L48.7753 51.6337L50.7889 53.8575C55.0031 50.0414 58.7684 44.806 60.3889 39.02L57.5 38.2109ZM48.7753 51.6337L46.7616 49.4099C43.2814 52.5614 38.9976 54.6331 34.4136 55.39L34.9024 58.3499L35.3912 61.3098C41.1212 60.3636 46.4615 57.7761 50.7889 53.8575L48.7753 51.6337ZM34.9024 58.3499L34.4136 55.39C29.8299 56.1469 25.1283 55.5593 20.857 53.6931L19.6559 56.4422L18.4548 59.1913C23.7856 61.5203 29.661 62.2561 35.3912 61.3098L34.9024 58.3499ZM19.6559 56.4422L20.857 53.6931C16.8155 51.9274 13.3021 48.2287 10.4912 44.0394L8 45.7109L5.50881 47.3825C8.59203 51.9776 12.8943 56.7619 18.4548 59.1913L19.6559 56.4422Z" fill="white"/>
<path d="M1.3663 23.0784C0.940157 24.6795 1.89266 26.3229 3.49378 26.749C5.09489 27.1752 6.73831 26.2227 7.16445 24.6215L4.26537 23.85L1.3663 23.0784ZM4.26537 23.85L7.16445 24.6215C8.35164 20.161 11.307 15.8131 14.858 12.5129L12.8157 10.3154L10.7734 8.11789C6.60894 11.9882 2.91172 17.2718 1.3663 23.0784L4.26537 23.85ZM12.8157 10.3154L14.858 12.5129C18.2971 9.31677 22.5537 7.1898 27.1275 6.3736L26.6005 3.42026L26.0735 0.466914C20.3562 1.48717 15.0498 4.14362 10.7734 8.11789L12.8157 10.3154ZM26.6005 3.42026L27.1275 6.3736C31.701 5.55744 36.4099 6.08423 40.705 7.89493L41.8704 5.13054L43.0358 2.36615C37.6753 0.106308 31.791 -0.553392 26.0735 0.466914L26.6005 3.42026ZM41.8704 5.13054L40.705 7.89493C44.769 9.60823 48.33 13.2612 51.1948 17.4137L53.6642 15.7101L56.1335 14.0065C52.9911 9.4516 48.6273 4.72339 43.0358 2.36615L41.8704 5.13054Z" fill="white"/>
<path d="M3 52.7109V41.7109H14" stroke="white" stroke-width="6" stroke-linecap="round"/>
<path d="M59 8.71094V19.7109H48" stroke="white" stroke-width="6" stroke-linecap="round"/>
<rect x="4" y="43.7109" width="6" height="4" fill="white"/>
<rect x="51" y="13.7109" width="8" height="6" fill="white"/>
<path d="M31 19.7109V41.7109" stroke="white" stroke-width="6" stroke-linecap="round" stroke-linejoin="round"/>
<path d="M20 30.7109L42 30.7109" stroke="white" stroke-width="6" stroke-linecap="round" stroke-linejoin="round"/>
</svg>
