<svg width="48" height="48" viewBox="0 0 48 48" fill="none" xmlns="http://www.w3.org/2000/svg">
<path d="M35.1018 25.5002C34.966 24.7042 34.6892 23.9183 34.2619 23.1781C33.2571 21.4377 31.6177 20.2921 29.8048 19.8646L32.1997 18.482C35.5477 16.549 36.6948 12.2678 34.7618 8.91978C32.8288 5.57173 28.5477 4.4246 25.1997 6.3576L9.6112 15.3576C6.26315 17.2906 5.11603 21.5717 7.04902 24.9198C8.05384 26.6602 9.69316 27.8058 11.5061 28.2333L9.11124 29.616C5.76319 31.5489 4.61606 35.8301 6.54906 39.1781C8.48206 42.5262 12.7632 43.6733 16.1112 41.7403L23.9055 37.2403" stroke="white" stroke-width="4" stroke-linecap="round" stroke-linejoin="round"/>
<path d="M27 24L18 29.1962L18 18.8038L27 24Z" fill="white"/>
<rect x="30" y="36" width="14" height="2" fill="white"/>
<rect x="38" y="30" width="14" height="2" transform="rotate(90 38 30)" fill="white"/>
</svg>
