<svg width="48" height="48" viewBox="0 0 48 48" fill="none" xmlns="http://www.w3.org/2000/svg">
<path d="M28.9849 10.9141L27.0121 11.2428C27.1289 11.9436 27.6087 12.5299 28.2726 12.7829L28.9849 10.9141ZM32.8345 13.1406L31.5715 14.6913C32.1225 15.1401 32.8703 15.2628 33.5359 15.0136L32.8345 13.1406ZM38.4547 11.0361L40.1867 10.0361C39.6979 9.18952 38.6688 8.82034 37.7533 9.16314L38.4547 11.0361ZM42.4547 17.9639L43.7257 19.508C44.4806 18.8867 44.6756 17.8106 44.1867 16.9638L42.4547 17.9639ZM37.8228 21.7764L36.5518 20.2322C36.0039 20.6832 35.736 21.3908 35.8478 22.0916L37.8228 21.7764ZM37.8228 26.2227L35.8478 25.9076C35.736 26.6082 36.0038 27.3157 36.5516 27.7667L37.8228 26.2227ZM42.4547 30.0361L44.1867 31.0362C44.6755 30.1895 44.4806 29.1135 43.7259 28.4921L42.4547 30.0361ZM38.4547 36.9639L37.753 38.8368C38.6685 39.1797 39.6978 38.8106 40.1867 37.9639L38.4547 36.9639ZM32.8345 34.8584L33.5362 32.9855C32.8705 32.7361 32.1225 32.8588 31.5714 33.3078L32.8345 34.8584ZM28.9849 37.085L28.2726 35.2161C27.6087 35.4692 27.1289 36.0555 27.0121 36.7563L28.9849 37.085ZM27.9996 43V45C28.9773 45 29.8117 44.2931 29.9724 43.3286L27.9996 43ZM19.9996 43L18.0268 43.329C18.1876 44.2933 19.022 45 19.9996 45V43ZM19.0132 37.085L20.986 36.756C20.8692 36.0554 20.3895 35.4693 19.7258 35.2162L19.0132 37.085ZM15.1636 34.8584L16.4269 33.3079C15.8757 32.8588 15.1276 32.7361 14.4618 32.9856L15.1636 34.8584ZM9.54547 36.9639L7.81345 37.9639C8.30234 38.8106 9.33177 39.1798 10.2473 38.8367L9.54547 36.9639ZM5.54547 30.0361L4.27409 28.4922C3.51945 29.1137 3.32463 30.1896 3.81345 31.0362L5.54547 30.0361ZM10.1763 26.2227L11.4477 27.7665C11.9954 27.3155 12.2631 26.6082 12.1514 25.9076L10.1763 26.2227ZM10.1763 21.7764L12.1513 22.0916C12.2632 21.3909 11.9953 20.6833 11.4475 20.2323L10.1763 21.7764ZM5.54547 17.9639L3.81345 16.9638C3.32459 17.8105 3.51949 18.8865 4.27428 19.5079L5.54547 17.9639ZM9.54547 11.0361L10.247 9.16322C9.33154 8.82028 8.30229 9.18945 7.81345 10.0361L9.54547 11.0361ZM15.1636 13.1406L14.4621 15.0135C15.1277 15.2629 15.8758 15.1402 16.4269 14.6912L15.1636 13.1406ZM19.0132 10.9141L19.7258 12.7828C20.3895 12.5298 20.8692 11.9437 20.986 11.2431L19.0132 10.9141ZM19.9996 5V3C19.022 3 18.1876 3.70671 18.0268 4.67099L19.9996 5ZM27.9996 5L29.9724 4.67131C29.8117 3.70688 28.9773 3 27.9996 3V5ZM28.9849 10.9141L28.2726 12.7829C29.4756 13.2414 30.5871 13.8895 31.5715 14.6913L32.8345 13.1406L34.0976 11.5899C32.7886 10.5237 31.3064 9.65857 29.6972 9.04521L28.9849 10.9141ZM32.8345 13.1406L33.5359 15.0136L39.156 12.9091L38.4547 11.0361L37.7533 9.16314L32.1332 11.2676L32.8345 13.1406ZM38.4547 11.0361L36.7226 12.0362L40.7226 18.9639L42.4547 17.9639L44.1867 16.9638L40.1867 10.0361L38.4547 11.0361ZM42.4547 17.9639L41.1836 16.4197L36.5518 20.2322L37.8228 21.7764L39.0938 23.3205L43.7257 19.508L42.4547 17.9639ZM37.8228 21.7764L35.8478 22.0916C35.9472 22.714 35.9996 23.3511 35.9996 24H37.9996H39.9996C39.9996 23.1352 39.9297 22.2873 39.7978 21.4611L37.8228 21.7764ZM37.9996 24H35.9996C35.9996 24.6483 35.9471 25.2851 35.8478 25.9076L37.8228 26.2227L39.7978 26.5378C39.9295 25.7122 39.9996 24.8647 39.9996 24H37.9996ZM37.8228 26.2227L36.5516 27.7667L41.1834 31.5802L42.4547 30.0361L43.7259 28.4921L39.094 24.6786L37.8228 26.2227ZM42.4547 30.0361L40.7226 29.0361L36.7226 35.9638L38.4547 36.9639L40.1867 37.9639L44.1867 31.0362L42.4547 30.0361ZM38.4547 36.9639L39.1563 35.091L33.5362 32.9855L32.8345 34.8584L32.1329 36.7313L37.753 38.8368L38.4547 36.9639ZM32.8345 34.8584L31.5714 33.3078C30.5871 34.1096 29.4757 34.7575 28.2726 35.2161L28.9849 37.085L29.6973 38.9538C31.3064 38.3404 32.7885 37.4755 34.0977 36.409L32.8345 34.8584ZM28.9849 37.085L27.0121 36.7563L26.0268 42.6714L27.9996 43L29.9724 43.3286L30.9577 37.4136L28.9849 37.085ZM27.9996 43V41H19.9996V43V45H27.9996V43ZM19.9996 43L21.9723 42.671L20.986 36.756L19.0132 37.085L17.0405 37.4139L18.0268 43.329L19.9996 43ZM19.0132 37.085L19.7258 35.2162C18.5224 34.7573 17.4108 34.1095 16.4269 33.3079L15.1636 34.8584L13.9003 36.4089C15.2097 37.4757 16.6921 38.3403 18.3006 38.9537L19.0132 37.085ZM15.1636 34.8584L14.4618 32.9856L8.84362 35.0911L9.54547 36.9639L10.2473 38.8367L15.8655 36.7312L15.1636 34.8584ZM9.54547 36.9639L11.2775 35.9638L7.27749 29.0361L5.54547 30.0361L3.81345 31.0362L7.81345 37.9639L9.54547 36.9639ZM5.54547 30.0361L6.81685 31.58L11.4477 27.7665L10.1763 26.2227L8.90495 24.6788L4.27409 28.4922L5.54547 30.0361ZM10.1763 26.2227L12.1514 25.9076C12.0521 25.2852 11.9996 24.6482 11.9996 24H9.99957H7.99957C7.99957 24.8646 8.06962 25.7123 8.2013 26.5377L10.1763 26.2227ZM9.99957 24H11.9996C11.9996 23.3512 12.052 22.714 12.1513 22.0916L10.1763 21.7764L8.20133 21.4612C8.06949 22.2872 7.99957 23.1352 7.99957 24H9.99957ZM10.1763 21.7764L11.4475 20.2323L6.81666 16.4198L5.54547 17.9639L4.27428 19.5079L8.90514 23.3204L10.1763 21.7764ZM5.54547 17.9639L7.27749 18.9639L11.2775 12.0362L9.54547 11.0361L7.81345 10.0361L3.81345 16.9638L5.54547 17.9639ZM9.54547 11.0361L8.8439 12.909L14.4621 15.0135L15.1636 13.1406L15.8652 11.2677L10.247 9.16322L9.54547 11.0361ZM15.1636 13.1406L16.4269 14.6912C17.4108 13.8896 18.5225 13.2416 19.7258 12.7828L19.0132 10.9141L18.3007 9.0453C16.6921 9.65865 15.2096 10.5235 13.9004 11.5901L15.1636 13.1406ZM19.0132 10.9141L20.986 11.2431L21.9723 5.32901L19.9996 5L18.0268 4.67099L17.0405 10.5851L19.0132 10.9141ZM19.9996 5V7H27.9996V5V3H19.9996V5ZM27.9996 5L26.0268 5.32869L27.0121 11.2428L28.9849 10.9141L30.9577 10.5854L29.9724 4.67131L27.9996 5Z" fill="white"/>
<circle cx="24" cy="24" r="6" stroke="white" stroke-width="4"/>
</svg>
