<svg width="48" height="48" viewBox="0 0 48 48" fill="none" xmlns="http://www.w3.org/2000/svg">
<g clip-path="url(#clip0_102_1695)">
<path d="M28.2 6.35742L27.2 4.62532L27.2 4.62537L28.2 6.35742ZM35.2 18.4818L36.2 20.2138L36.2 20.2138L35.2 18.4818ZM32.8023 19.8661L31.8023 18.134C31.0921 18.544 30.7042 19.3461 30.8236 20.1574C30.9431 20.9687 31.5457 21.6249 32.3439 21.8128L32.8023 19.8661ZM37.2616 23.1777L38.9937 22.1777L38.9936 22.1776L37.2616 23.1777ZM34.6995 32.7399L35.6995 34.472L34.6995 32.7399ZM9.54883 39.1777L7.81671 40.1776L7.81678 40.1777L9.54883 39.1777ZM14.5078 28.2318L15.5078 29.9638C16.218 29.5538 16.6059 28.7518 16.4865 27.9406C16.3671 27.1293 15.7646 26.4731 14.9664 26.285L14.5078 28.2318ZM12.6115 15.3574L11.6115 13.6254L12.6115 15.3574ZM28.2 6.35742L29.1999 8.08952C31.5914 6.70892 34.6495 7.52832 36.0301 9.9196L37.7621 8.9196L39.4942 7.9196C37.0089 3.61498 31.5045 2.14041 27.2 4.62532L28.2 6.35742ZM37.7621 8.9196L36.0301 9.9196C37.4107 12.3109 36.5913 15.3689 34.1999 16.7498L35.2 18.4818L36.2 20.2138C40.5043 17.7285 41.9795 12.2242 39.4942 7.9196L37.7621 8.9196ZM35.2 18.4818L34.2 16.7497L31.8023 18.134L32.8023 19.8661L33.8023 21.5981L36.2 20.2138L35.2 18.4818ZM32.8023 19.8661L32.3439 21.8128C33.6444 22.119 34.8123 22.9355 35.5297 24.1778L37.2616 23.1777L38.9936 22.1776C37.7006 19.9383 35.5874 18.4671 33.2607 17.9193L32.8023 19.8661ZM37.2616 23.1777L35.5296 24.1777C36.9103 26.5692 36.0909 29.6271 33.6995 31.0079L34.6995 32.7399L35.6995 34.472C40.0041 31.9867 41.479 26.4824 38.9937 22.1777L37.2616 23.1777ZM34.6995 32.7399L33.6995 31.0079L18.111 40.0079L19.111 41.7399L20.111 43.472L35.6995 34.472L34.6995 32.7399ZM19.111 41.7399L18.111 40.0079C15.7195 41.3886 12.6616 40.5692 11.2809 38.1777L9.54883 39.1777L7.81678 40.1777C10.3021 44.4824 15.8064 45.9572 20.111 43.472L19.111 41.7399ZM9.54883 39.1777L11.2809 38.1778C9.90038 35.7863 10.7198 32.7282 13.111 31.3476L12.111 29.6155L11.111 27.8835C6.80639 30.3688 5.33193 35.8732 7.81671 40.1776L9.54883 39.1777ZM12.111 29.6155L13.111 31.3476L15.5078 29.9638L14.5078 28.2318L13.5078 26.4997L11.111 27.8835L12.111 29.6155ZM14.5078 28.2318L14.9664 26.285C13.6663 25.9788 12.4988 25.1622 11.7814 23.9196L10.0493 24.9196L8.31727 25.9196C9.60994 28.1586 11.7224 29.6303 14.0492 30.1785L14.5078 28.2318ZM10.0493 24.9196L11.7814 23.9196C10.4007 21.5281 11.22 18.4702 13.6115 17.0895L12.6115 15.3574L11.6115 13.6254C7.30686 16.1107 5.83198 21.615 8.31727 25.9196L10.0493 24.9196ZM12.6115 15.3574L13.6115 17.0895L29.2 8.08947L28.2 6.35742L27.2 4.62537L11.6115 13.6254L12.6115 15.3574Z" fill="white"/>
<path d="M30 24L21 29.1962L21 18.8038L30 24Z" fill="white"/>
</g>
<defs>
<clipPath id="clip0_102_1695">
<rect width="48" height="48" fill="white"/>
</clipPath>
</defs>
</svg>
