<svg width="65" height="62" viewBox="0 0 65 62" fill="none" xmlns="http://www.w3.org/2000/svg">
<path d="M58.9922 11.8428C62.3059 11.8428 64.9922 14.5291 64.9922 17.8428V56C64.992 59.3136 62.3058 62 58.9922 62H6C2.68639 62 0.000152504 59.3136 0 56V17.8428C0 14.5291 2.68629 11.8428 6 11.8428H58.9922ZM5.90918 17.7432V56.0986H59.084V17.7432H5.90918Z" fill="white"/>
<path d="M12.8022 0.0403782H51.2067C51.2067 0.0403782 53.668 -0.452626 55.1451 2.0067C56.6222 4.46603 56.1303 5.94119 56.1303 5.94119H8.86328C8.86328 5.94119 8.86294 3.97474 9.84787 2.00736C10.8328 0.0399852 12.8022 0.0403782 12.8022 0.0403782Z" fill="white"/>
<path d="M44.312 36.9213L26.5865 47.5677V26.2749L44.312 36.9213Z" fill="white"/>
</svg>
