<svg width="33" height="33" viewBox="0 0 33 33" fill="none" xmlns="http://www.w3.org/2000/svg">
<path d="M16.5 8V17.5H22.5" stroke="white" stroke-width="3" stroke-linecap="round" stroke-linejoin="round"/>
<path d="M16.5 1C19.5656 1 22.5624 1.90906 25.1113 3.61222C27.6603 5.31538 29.647 7.73615 30.8201 10.5684C31.9933 13.4007 32.3002 16.5172 31.7022 19.5239C31.1041 22.5306 29.6279 25.2924 27.4602 27.4602C25.2924 29.6279 22.5306 31.1041 19.5239 31.7022C16.5172 32.3002 13.4007 31.9933 10.5684 30.8201C7.73615 29.647 5.31538 27.6603 3.61222 25.1113C1.90906 22.5624 1 19.5656 1 16.5L2.05953 16.5C2.05953 19.3561 2.90645 22.148 4.49319 24.5227C6.07993 26.8974 8.33522 28.7483 10.9739 29.8413C13.6125 30.9342 16.516 31.2202 19.3172 30.663C22.1184 30.1058 24.6914 28.7305 26.711 26.711C28.7305 24.6914 30.1058 22.1184 30.663 19.3172C31.2202 16.516 30.9342 13.6125 29.8413 10.9739C28.7483 8.33522 26.8974 6.07993 24.5227 4.49319C22.148 2.90645 19.3561 2.05953 16.5 2.05953V1Z" fill="white" stroke="white" stroke-width="2" stroke-linejoin="round"/>
<circle cx="3.5" cy="9" r="2" fill="white"/>
<circle cx="3.5" cy="9" r="2" fill="white"/>
<circle cx="9.5" cy="3" r="2" fill="white"/>
<circle cx="9.5" cy="3" r="2" fill="white"/>
</svg>
