<svg width="20" height="21" viewBox="0 0 20 21" fill="none" xmlns="http://www.w3.org/2000/svg">
<path d="M15 8.75C16.1046 8.75 17 9.64543 17 10.75V18.75C17 19.8546 16.1046 20.75 15 20.75H12V15.75C12 14.3693 10.8807 13.25 9.5 13.25C8.11929 13.25 7 14.3693 7 15.75V20.75H4C2.89543 20.75 2 19.8546 2 18.75V10.75C2 9.64543 2.89543 8.75 4 8.75H15Z" fill="#182B88"/>
<path d="M18.75 10.75L9.50676 0.75L0.75 10.75" stroke="#182B88" stroke-width="1.5" stroke-linecap="round" stroke-linejoin="round"/>
<path d="M9.5 1.75L17.7272 10H1.27276L9.5 1.75Z" fill="#182B88"/>
</svg>
