<svg width="41" height="42" viewBox="0 0 41 42" fill="none" xmlns="http://www.w3.org/2000/svg">
<path d="M39 20.5L20.5 2L2 20.5" stroke="#00143A" stroke-width="4" stroke-linecap="round" stroke-linejoin="round"/>
<path d="M20.5 3.5L38.5 21.5H2.5L20.5 3.5Z" fill="#001438"/>
<path d="M33 17.5C34.6569 17.5 36 18.8431 36 20.5V38.5C36 40.1569 34.6569 41.5 33 41.5H7C5.34315 41.5 4 40.1569 4 38.5V20.5C4 18.8431 5.34315 17.5 7 17.5H33ZM20.5 22C18.2909 22 16.5 23.7909 16.5 26V39H24.5V26C24.5 23.7909 22.7091 22 20.5 22Z" fill="#001438"/>
</svg>
