<svg width="12" height="23" viewBox="0 0 12 23" fill="none" xmlns="http://www.w3.org/2000/svg">
<path d="M1.33276 15.5C1.33276 15.5 2.16486 16.2774 2.83276 16.5C4.33276 17 3.06759 19.5169 1.83276 19.5C1.1288 19.4904 0.332764 18.5 0.332764 18.5L1.33276 15.5Z" fill="#515A68"/>
<path d="M1.35864 4.28046C3.58529 1.69921 7.81165 1.60695 10.0657 3.66522C10.2854 3.84685 10.4874 4.03628 10.677 4.2326L9.03931 6.68964C8.78741 6.46126 8.53194 6.26857 8.26489 6.10663C6.79687 5.17138 5.05661 5.61744 4.21704 6.72089C4.02084 6.97972 3.91196 7.24965 3.88892 7.44647C3.86734 7.6479 3.89848 7.75872 3.97876 7.90741C4.12038 8.20576 4.76402 8.69358 5.62427 8.98846C5.72074 9.02325 5.82328 9.05845 5.92993 9.09198C7.28793 9.53229 8.702 10.1559 9.90259 11.4914C11.1321 12.7644 11.6625 15.1929 10.7883 16.9211C9.06995 20.4643 4.86456 20.897 2.23853 19.7053C1.62599 19.4501 1.07576 19.1403 0.547119 18.7775C1.07117 17.9259 1.59534 17.0744 2.11938 16.2228C2.52619 16.4346 2.92348 16.5951 3.32935 16.7121C5.11872 17.2945 6.97153 16.4913 7.31372 15.4172C7.46712 14.9198 7.39474 14.6038 6.96411 14.1174C6.52245 13.6417 5.69363 13.2022 4.73657 12.9094C4.57666 12.8596 4.42032 12.8061 4.26782 12.7512C2.95697 12.2562 1.38253 11.4956 0.445557 9.6496C-0.518819 7.75377 0.218498 5.46842 1.35864 4.28046Z" fill="#515A68"/>
<path d="M5.83276 23V20V19.5" stroke="#515A68" stroke-width="2.8"/>
<path d="M5.83276 0V2.5" stroke="#515A68" stroke-width="2.8"/>
</svg>
