<svg width="12" height="23" viewBox="0 0 12 23" fill="none" xmlns="http://www.w3.org/2000/svg">
<path d="M1.33289 15.5C1.33289 15.5 2.16499 16.2774 2.83289 16.5C4.33289 17 3.06772 19.5169 1.83289 19.5C1.12892 19.4904 0.332886 18.5 0.332886 18.5L1.33289 15.5Z" fill="#1B2988"/>
<path d="M1.35873 4.28037C3.58538 1.69914 7.81174 1.60687 10.0658 3.66513C10.2855 3.84676 10.4875 4.0362 10.6771 4.23252L9.03939 6.68955C8.7875 6.46118 8.53203 6.26848 8.26498 6.10654C6.79696 5.1713 5.0567 5.61737 4.21713 6.7208C4.02092 6.97963 3.91204 7.24956 3.889 7.44638C3.8674 7.64786 3.89855 7.75861 3.97885 7.90732C4.12037 8.20567 4.76401 8.69346 5.62435 8.98838C5.72085 9.02317 5.82334 9.05835 5.93002 9.09189C7.28804 9.53221 8.70206 10.1558 9.90267 11.4913C11.1322 12.7643 11.6626 15.1927 10.7884 16.921C9.07002 20.4643 4.86464 20.897 2.23861 19.7052C1.62604 19.45 1.07587 19.1403 0.547204 18.7774C1.07125 17.9259 1.59543 17.0743 2.11947 16.2228C2.52631 16.4345 2.92354 16.595 3.32943 16.712C5.11886 17.2945 6.97167 16.4912 7.31381 15.4171C7.46722 14.9197 7.39489 14.6038 6.9642 14.1173C6.52252 13.6416 5.69375 13.2021 4.73666 12.9093C4.57672 12.8595 4.42043 12.8061 4.26791 12.7511C2.95704 12.2561 1.38261 11.4956 0.445642 9.64951C-0.518734 7.75369 0.218584 5.46833 1.35873 4.28037Z" fill="#1B2988"/>
<path d="M5.83289 23V20V19.5" stroke="#1B2988" stroke-width="2.8"/>
<path d="M5.83289 0V2.5" stroke="#1B2988" stroke-width="2.8"/>
</svg>
