<svg width="39" height="40" viewBox="0 0 39 40" fill="none" xmlns="http://www.w3.org/2000/svg">
<g clip-path="url(#clip0_2021_182)">
<path d="M7.02057 9H1.52052C1.52052 9 1.2699 13.8824 2.52057 16C3.77124 18.1176 4.40112 18.8274 6.02057 20C7.64002 21.1726 8.99241 21.7571 10.5206 22C12.0487 22.2429 13.5206 22 13.5206 22" stroke="#525B69" stroke-width="3" stroke-linecap="round"/>
<path d="M31.5205 9H37.0205C37.0205 9 37.2711 13.8824 36.0205 16C34.7698 18.1176 34.1399 18.8274 32.5205 20C30.901 21.1726 29.5486 21.7571 28.0205 22C26.4923 22.2429 25.0205 22 25.0205 22" stroke="#525B69" stroke-width="3" stroke-linecap="round"/>
<path d="M30.0999 2C30.1029 2.41508 30.0984 2.89786 30.0833 3.44434C30.0234 5.60018 29.7836 8.74534 29.0549 12.6318C28.8236 13.8656 28.4649 14.7648 28.0012 15.6943C27.7576 16.1826 27.4957 16.659 27.1858 17.2354C26.8829 17.7987 26.551 18.4268 26.2112 19.1475C25.2807 21.1207 24.1129 22.3822 22.8059 24.1387C21.5254 25.8596 20.3097 27.854 20.0295 30.8115C19.9622 31.5226 19.9662 32.6319 19.9797 33.4697C19.9868 33.9087 19.9973 34.3091 20.0061 34.5996C20.0105 34.745 20.0139 34.8637 20.0168 34.9463C20.0183 34.9874 20.0199 35.0197 20.0208 35.042C20.0212 35.0531 20.0215 35.0624 20.0217 35.0684V35.0781L20.1018 37.1162L22.1379 36.9961L22.137 36.9971C22.137 36.9971 22.1388 36.9962 22.1409 36.9961C22.145 36.9959 22.1523 36.9956 22.1624 36.9951C22.1828 36.9941 22.2153 36.993 22.2581 36.9912C22.3438 36.9875 22.4712 36.9822 22.6301 36.9785C22.9505 36.9711 23.3908 36.9685 23.8704 36.9854C24.9426 37.023 25.8214 37.1518 26.1926 37.3203C26.8827 37.634 27.2537 37.825 27.5315 38H11.929C12.0706 37.8832 12.1615 37.8155 12.2532 37.7578C12.3806 37.6776 12.5603 37.5854 13.1252 37.4062C13.5502 37.2716 14.3502 37.159 15.1877 37.0859C15.5769 37.052 15.9302 37.03 16.1858 37.0166C16.3129 37.0099 16.4148 37.0057 16.4836 37.0029C16.518 37.0015 16.544 37.0006 16.5608 37C16.5688 36.9997 16.5747 36.9991 16.5784 36.999H16.5823L18.4504 36.9414L18.5188 35.0732V35.0703C18.5188 35.0703 18.5197 35.0662 18.5198 35.0635C18.52 35.0575 18.5204 35.049 18.5208 35.0381C18.5215 35.0159 18.5223 34.9836 18.5237 34.9424C18.5264 34.86 18.5303 34.7418 18.5344 34.5967C18.5428 34.3066 18.5531 33.9062 18.5598 33.4678C18.5726 32.629 18.575 31.5255 18.512 30.8213C18.2558 27.9618 17.185 25.9788 16.0198 24.2344C14.8287 22.4514 13.7459 21.1598 12.8401 19.1709C11.4714 16.1658 10.6516 15.1535 9.95532 12.4932C9.37206 10.2646 9.12581 7.20154 9.03735 4.59082C9.00436 3.61682 8.99663 2.72774 8.99634 2H30.0999Z" fill="#525B69" stroke="#525B69" stroke-width="4" stroke-linecap="round"/>
<path d="M19.5 34C26.1274 34 31.5 36.4624 31.5 39.5C31.5 39.6686 31.4826 39.8353 31.4502 40H7.5498C7.5174 39.8353 7.5 39.6686 7.5 39.5C7.5 36.4624 12.8726 34 19.5 34Z" fill="#525B69"/>
</g>
<defs>
<clipPath id="clip0_2021_182">
<rect width="39" height="40" fill="white"/>
</clipPath>
</defs>
</svg>
