<svg width="19" height="20" viewBox="0 0 19 20" fill="none" xmlns="http://www.w3.org/2000/svg">
<rect x="0.5" y="8.5" width="18" height="11" rx="1.5" fill="#3270E4" stroke="#3270E4"/>
<path d="M15.98 4.75L16.0757 4.77441C16.1659 4.80455 16.3121 4.87212 16.4702 5.03027C16.5632 5.12329 16.6131 5.19341 16.647 5.25H1.85303C1.88694 5.19335 1.93761 5.12343 2.03076 5.03027C2.18877 4.87234 2.3341 4.80456 2.42432 4.77441C2.47059 4.75899 2.50468 4.7522 2.52002 4.75H15.98Z" fill="#3270E4" stroke="#3270E4" stroke-width="1.5" stroke-linecap="round" stroke-linejoin="round"/>
<path d="M15.9922 0.75L16.0879 0.774414C16.1781 0.804551 16.3243 0.872118 16.4824 1.03027C16.5754 1.12329 16.6253 1.19341 16.6592 1.25H1.86523C1.89914 1.19335 1.94981 1.12343 2.04297 1.03027C2.20097 0.872338 2.3463 0.804558 2.43652 0.774414C2.4828 0.758988 2.51688 0.752199 2.53223 0.75H15.9922Z" fill="#3270E4" stroke="#3270E4" stroke-width="1.5" stroke-linecap="round" stroke-linejoin="round"/>
</svg>
